<!-- CC BY 4.0 from https://www.iconfinder.com/iconsets/war-in-ukraine?utm_campaign=Ukraine&utm_medium=landing%20page&utm_source=Webflow&utm_content=War%20in%20Ukraine%20color%20by%20Kokota -->
<!-- Generator: Adobe Illustrator 25.4.0, SVG Export Plug-In . SVG Version: 6.00 Build 0)  -->
<svg version="1.1" id="Layer_1" xmlns="http://www.w3.org/2000/svg" xmlns:xlink="http://www.w3.org/1999/xlink" x="0px" y="0px"
	 viewBox="0 0 128 128" style="enable-background:new 0 0 128 128;" xml:space="preserve">
<style type="text/css">
	.st0{fill:#FFFFFF;}
	.st1{fill:#E8E8E8;}
	.st2{fill:#464C54;}
	.st3{fill:#F6CA47;}
	.st4{fill:#00A6E4;}
</style>
<g>
	<path class="st0" d="M59.9,81.6C23.3,52,35.6,16.5,35.6,16.5s47.6,18.8,65.8,41.8"/>
</g>
<g>
	<path class="st1" d="M79.5,52c17.7-34.6,39.8-9.7,39.8-9.7c-10.4,4.9-4.1,26.3-18.7,47.6c-10.5,15.3-24.7,14.9-46.4,18.7
		c-7.6,1.3-17.4,9.9-17.4,9.9c-13.3-9.2-25.2-18.9-27.6-32.9L52,78.2"/>
</g>
<g>
	<path class="st1" d="M46.2,88.4c-40.8-23.6-34-60.7-34-60.7s50,11.2,71.5,31.1L46.2,88.4z"/>
</g>
<g>
	<g>
		<path class="st0" d="M31.6,33.1c-11.2-3.5-19.4-5.4-19.4-5.4s-6.7,37,34,60.7l0,0C65.8,72.9,32.1,44.2,31.6,33.1z"/>
	</g>
</g>
<g>
	<path class="st2" d="M36.8,121.6c-0.3,0-0.6,0-0.9-0.1c-15.4-5.1-28-25.7-29.7-35.2C5.9,84.6,7,83,8.7,82.8L22,80.4
		c1.6-0.3,3.2,0.8,3.5,2.4c0.3,1.6-0.8,3.2-2.4,3.5l-10.1,1.8c3,8.6,12.6,22.6,23.3,27.1c3.1-2.5,10.9-8.3,17.5-9.5
		c3.5-0.6,6.7-1.1,9.8-1.6c4.3-0.7,8.3-1.3,12-2.1c1.6-0.3,3.2,0.7,3.6,2.3c0.3,1.6-0.7,3.2-2.3,3.6c-3.8,0.8-8,1.5-12.3,2.1
		c-3.1,0.5-6.3,1-9.7,1.6c-5.5,1-13.4,7-16,9.2C38.2,121.3,37.5,121.6,36.8,121.6z"/>
</g>
<g>
	<path class="st2" d="M106.2,82.7c-0.4,0-0.8-0.1-1.2-0.2c-1.5-0.6-2.2-2.4-1.6-3.9c3-7.1,4.2-13.9,5.3-19.9
		c1.2-6.8,2.3-12.9,5.9-16.6c-3-2.5-8.6-6.1-14.8-5.3c-6.5,0.8-12.5,6.4-17.7,16.6c-0.8,1.5-2.6,2.1-4,1.3c-1.5-0.8-2.1-2.6-1.3-4
		C83,38.5,90.5,31.8,99.1,30.7c12.4-1.6,22,9.1,22.4,9.5c0.6,0.7,0.9,1.7,0.7,2.6c-0.2,0.9-0.8,1.7-1.7,2.1
		c-3.5,1.6-4.5,6.4-5.9,14.6c-1.1,6-2.4,13.4-5.7,21.2C108.5,82,107.4,82.7,106.2,82.7z"/>
</g>
<g>
	<path class="st2" d="M46.2,91.3c-0.5,0-1-0.1-1.5-0.4c-3.8-2.3-7.4-4.7-10.7-7.3c-1.3-1-1.5-2.9-0.5-4.2c1-1.3,2.9-1.5,4.2-0.5
		c3,2.4,6.4,4.7,9.9,6.8c1.4,0.8,1.9,2.7,1.1,4.1C48.3,90.8,47.3,91.3,46.2,91.3z"/>
</g>
<g>
	<path class="st2" d="M23.5,71.5c-0.9,0-1.8-0.4-2.4-1.2C5.4,49.1,9.1,28,9.3,27.2c0.1-0.8,0.6-1.5,1.3-2c0.7-0.4,1.5-0.6,2.3-0.4
		c0.5,0.1,12.8,2.9,28,8.2c20.5,7.2,35.6,15.1,44.9,23.7c1.2,1.1,1.3,3,0.2,4.2c-1.1,1.2-3,1.3-4.2,0.2
		C64.1,44.8,26.2,34.3,14.8,31.4c-0.3,6.3,0.4,20.8,11.1,35.3c1,1.3,0.7,3.2-0.6,4.2C24.7,71.3,24.1,71.5,23.5,71.5z"/>
</g>
<g>
	<path class="st2" d="M73.7,38.6c-0.6,0-1.1-0.2-1.6-0.5C61.2,31,43.9,23.5,37.1,20.7c-0.1,0.5-0.2,1-0.4,1.7
		c-0.4,1.6-1.9,2.6-3.6,2.3c-1.6-0.3-2.6-1.9-2.3-3.6c1.1-4.9,1.9-7,4.2-7.3c0.5-0.1,1,0,1.5,0.2c1,0.4,24.6,9.9,38.8,19.1
		c1.4,0.9,1.8,2.8,0.9,4.2C75.7,38.1,74.7,38.6,73.7,38.6z"/>
</g>
<g>
	<g>
		<path class="st3" d="M105.6,121.5c0.8,0.8,2.1,0.8,2.8,0l15.5-15.6c0.8-0.8,1.5-1.8,2-2.8l-19-3.3l-19,3.3
			c0.5,1.1,1.2,2.1,2.1,2.9L105.6,121.5z"/>
	</g>
	<g>
		<path class="st4" d="M123.9,91.1c-4.1-4.1-10.7-4.1-14.8,0l-2.2,2.2l-2.2-2.2c-4.1-4.1-10.7-4.1-14.8,0c-3.2,3.2-3.9,8-2.1,11.9
			h38C127.8,99.2,127.2,94.3,123.9,91.1z"/>
	</g>
</g>
</svg>
